<svg width="207px" height="93px"
 viewBox="0.00 0.00 207.00 93.00" xmlns="http://www.w3.org/2000/svg" xmlns:xlink="http://www.w3.org/1999/xlink">
<g id="graph0" class="graph" transform="scale(1.0 1.0) rotate(0.0) translate(4.0 89.0)">
<title>Context Map</title>
<polygon fill="white" stroke="none" points="-4,4 -4,-89 203,-89 203,4 -4,4"/>
<!-- com.youramaryllis.ddd.example.user -->
<g id="node1" class="node"><title>com.youramaryllis.ddd.example.user</title>
<ellipse fill="#f2f2f2" stroke="black" cx="27.2552" cy="-67.0595" rx="27.1719" ry="18"/>
<text text-anchor="middle" x="27.2552" y="-63.9595" font-family="Bitstream Vera Sans" font-size="12.00">User</text>
</g>
<!-- com.youramaryllis.ddd.example.catalog -->
<g id="node2" class="node"><title>com.youramaryllis.ddd.example.catalog</title>
<ellipse fill="#f2f2f2" stroke="black" cx="162.305" cy="-64.8034" rx="36.8706" ry="18"/>
<text text-anchor="middle" x="162.305" y="-61.7034" font-family="Bitstream Vera Sans" font-size="12.00">Catalog</text>
</g>
<!-- com.youramaryllis.ddd.example.order -->
<g id="node3" class="node"><title>com.youramaryllis.ddd.example.order</title>
<ellipse fill="#f2f2f2" stroke="black" cx="96.7776" cy="-18.4393" rx="31.2902" ry="18"/>
<text text-anchor="middle" x="96.7776" y="-15.3393" font-family="Bitstream Vera Sans" font-size="12.00">Order</text>
</g>
<!-- com.youramaryllis.ddd.example.order&#45;&#45;com.youramaryllis.ddd.example.user -->
<g id="edge1" class="edge"><title>com.youramaryllis.ddd.example.order&#45;&#45;com.youramaryllis.ddd.example.user</title>
<path fill="none" stroke="black" d="M76.6688,-32.5023C67.0441,-39.2332 55.5851,-47.2471 46.1262,-53.8621"/>
<text text-anchor="middle" x="50.3975" y="-43.7822" font-family="sans-serif" font-size="3.00">Shared Kernel</text>
</g>
<!-- com.youramaryllis.ddd.example.order&#45;&#45;com.youramaryllis.ddd.example.catalog -->
<g id="edge2" class="edge"><title>com.youramaryllis.ddd.example.order&#45;&#45;com.youramaryllis.ddd.example.catalog</title>
<path fill="none" stroke="black" d="M116.794,-32.602C124.472,-38.0346 133.257,-44.2502 141.047,-49.7623"/>
<polygon fill="white" stroke="none" points="130.047,-44.7623 130.047,-53.7623 139.047,-53.7623 139.047,-44.7623 130.047,-44.7623"/>
<polyline fill="none" stroke="black" points="139.047,-44.7623 139.047,-53.7623 "/>
<text text-anchor="start" x="133.047" y="-48.3623" font-family="sans-serif" font-size="3.00">D</text>
<polygon fill="white" stroke="none" points="139.047,-44.7623 139.047,-53.7623 152.047,-53.7623 152.047,-44.7623 139.047,-44.7623"/>
<polygon fill="none" stroke="black" points="139.047,-44.7623 139.047,-53.7623 152.047,-53.7623 152.047,-44.7623 139.047,-44.7623"/>
<text text-anchor="start" x="142.047" y="-48.3623" font-family="sans-serif" font-size="3.00">ACL</text>
<polygon fill="white" stroke="none" points="105.794,-27.602 105.794,-36.602 114.794,-36.602 114.794,-27.602 105.794,-27.602"/>
<polyline fill="none" stroke="black" points="114.794,-27.602 114.794,-36.602 "/>
<text text-anchor="start" x="108.794" y="-31.202" font-family="sans-serif" font-size="3.00">U</text>
<polygon fill="white" stroke="none" points="114.794,-27.602 114.794,-36.602 127.794,-36.602 127.794,-27.602 114.794,-27.602"/>
<polygon fill="none" stroke="black" points="114.794,-27.602 114.794,-36.602 127.794,-36.602 127.794,-27.602 114.794,-27.602"/>
<text text-anchor="start" x="117.794" y="-31.202" font-family="sans-serif" font-size="3.00">OHS</text>
</g>
</g>
</svg>
